<svg width="42" height="42" viewBox="0 0 42 42" fill="none" xmlns="http://www.w3.org/2000/svg">
<path d="M38.4583 22.375C38.1243 21.9948 37.9401 21.506 37.9401 21C37.9401 20.4939 38.1243 20.0052 38.4583 19.625L41.125 16.625C41.4188 16.2972 41.6013 15.8848 41.6462 15.4469C41.6911 15.009 41.5962 14.5681 41.375 14.1875L37.2083 6.97915C36.9894 6.59899 36.656 6.29764 36.2557 6.11808C35.8554 5.93852 35.4087 5.8899 34.9792 5.97915L31.0625 6.77082C30.5641 6.87379 30.0453 6.79079 29.6039 6.53748C29.1625 6.28417 28.8291 5.87807 28.6667 5.39582L27.3958 1.58332C27.2561 1.16952 26.9898 0.81012 26.6346 0.555906C26.2795 0.301691 25.8534 0.165524 25.4167 0.166652H17.0833C16.629 0.142939 16.1794 0.268582 15.8032 0.524389C15.4271 0.780197 15.1449 1.15211 15 1.58332L13.8333 5.39582C13.6708 5.87807 13.3374 6.28417 12.8961 6.53748C12.4547 6.79079 11.9359 6.87379 11.4375 6.77082L7.41665 5.97915C7.00947 5.92161 6.59436 5.98587 6.22363 6.16382C5.85289 6.34177 5.54312 6.62546 5.33332 6.97915L1.16665 14.1875C0.939904 14.5638 0.83795 15.0022 0.875368 15.44C0.912785 15.8778 1.08766 16.2926 1.37499 16.625L4.02082 19.625C4.35482 20.0052 4.53902 20.4939 4.53902 21C4.53902 21.506 4.35482 21.9948 4.02082 22.375L1.37499 25.375C1.08766 25.7074 0.912785 26.1221 0.875368 26.5599C0.83795 26.9977 0.939904 27.4361 1.16665 27.8125L5.33332 35.0208C5.55227 35.401 5.88565 35.7023 6.28593 35.8819C6.68621 36.0615 7.13295 36.1101 7.56249 36.0208L11.4792 35.2291C11.9775 35.1262 12.4963 35.2092 12.9377 35.4625C13.3791 35.7158 13.7125 36.1219 13.875 36.6041L15.1458 40.4166C15.2908 40.8479 15.5729 41.2198 15.9491 41.4756C16.3253 41.7314 16.7748 41.857 17.2292 41.8333H25.5625C25.9992 41.8344 26.4253 41.6983 26.7805 41.4441C27.1356 41.1898 27.4019 40.8304 27.5417 40.4166L28.8125 36.6041C28.975 36.1219 29.3084 35.7158 29.7498 35.4625C30.1911 35.2092 30.7099 35.1262 31.2083 35.2291L35.125 36.0208C35.5545 36.1101 36.0013 36.0615 36.4015 35.8819C36.8018 35.7023 37.1352 35.401 37.3542 35.0208L41.5208 27.8125C41.742 27.4319 41.837 26.991 41.7921 26.5531C41.7471 26.1152 41.5647 25.7028 41.2708 25.375L38.4583 22.375ZM35.3542 25.1667L37.0208 27.0416L34.3542 31.6667L31.8958 31.1666C30.3954 30.8599 28.8345 31.1148 27.5096 31.8829C26.1846 32.651 25.1878 33.8788 24.7083 35.3333L23.9167 37.6666H18.5833L17.8333 35.2917C17.3539 33.8372 16.357 32.6093 15.0321 31.8412C13.7071 31.0732 12.1463 30.8183 10.6458 31.125L8.18749 31.625L5.47915 27.0208L7.14582 25.1458C8.17073 23.9999 8.73735 22.5165 8.73735 20.9792C8.73735 19.4418 8.17073 17.9584 7.14582 16.8125L5.47915 14.9375L8.14582 10.3542L10.6042 10.8542C12.1046 11.1609 13.6655 10.906 14.9904 10.1379C16.3154 9.36981 17.3122 8.14198 17.7917 6.68748L18.5833 4.33332H23.9167L24.7083 6.70832C25.1878 8.16282 26.1846 9.39064 27.5096 10.1587C28.8345 10.9268 30.3954 11.1817 31.8958 10.875L34.3542 10.375L37.0208 15L35.3542 16.875C34.3407 18.0182 33.7812 19.4931 33.7812 21.0208C33.7812 22.5486 34.3407 24.0234 35.3542 25.1667ZM21.25 12.6667C19.6018 12.6667 17.9906 13.1554 16.6202 14.0711C15.2498 14.9867 14.1817 16.2882 13.551 17.811C12.9203 19.3337 12.7552 21.0092 13.0768 22.6257C13.3983 24.2422 14.192 25.7271 15.3574 26.8925C16.5229 28.058 18.0077 28.8517 19.6242 29.1732C21.2407 29.4947 22.9163 29.3297 24.439 28.699C25.9617 28.0683 27.2632 27.0001 28.1789 25.6297C29.0946 24.2593 29.5833 22.6482 29.5833 21C29.5833 18.7898 28.7053 16.6702 27.1425 15.1074C25.5797 13.5446 23.4601 12.6667 21.25 12.6667ZM21.25 25.1667C20.4259 25.1667 19.6203 24.9223 18.9351 24.4644C18.2499 24.0066 17.7159 23.3559 17.4005 22.5945C17.0851 21.8331 17.0026 20.9954 17.1634 20.1871C17.3242 19.3789 17.721 18.6364 18.3037 18.0537C18.8864 17.471 19.6289 17.0742 20.4371 16.9134C21.2454 16.7526 22.0831 16.8351 22.8445 17.1505C23.6059 17.4659 24.2566 17.9999 24.7144 18.6851C25.1723 19.3703 25.4167 20.1759 25.4167 21C25.4167 22.1051 24.9777 23.1649 24.1963 23.9463C23.4149 24.7277 22.3551 25.1667 21.25 25.1667Z" fill="white"/>
</svg>
