<svg width="46" height="46" viewBox="0 0 46 46" fill="none" xmlns="http://www.w3.org/2000/svg">
<path d="M23.2188 0.5625C10.7279 0.5625 0.5625 10.7249 0.5625 23.2188C0.5625 35.7126 10.7279 45.875 23.2188 45.875C35.7096 45.875 45.875 35.7126 45.875 23.2188C45.875 10.7249 35.7096 0.5625 23.2188 0.5625ZM23.2188 2.125C34.849 2.125 44.3125 11.5885 44.3125 23.2188C44.3125 34.849 34.849 44.3125 23.2188 44.3125C11.5885 44.3125 2.125 34.849 2.125 23.2188C2.125 11.5885 11.5885 2.125 23.2188 2.125ZM22.877 5.2561C18.2749 5.34766 13.8132 7.21228 10.5112 10.5112C3.50745 17.5181 3.50745 28.9164 10.5112 35.9232C10.6638 36.0758 10.8652 36.1521 11.0636 36.1521C11.265 36.1521 11.4664 36.0758 11.619 35.9232C11.9242 35.618 11.9242 35.1237 11.619 34.8185C5.21948 28.422 5.22253 18.0155 11.619 11.619C15.3269 7.90808 20.64 6.18994 25.828 7.02002C26.2522 7.09021 26.655 6.79724 26.7222 6.37305C26.7924 5.9458 26.4994 5.54297 26.0752 5.47583C25.0101 5.30493 23.942 5.23169 22.877 5.2561ZM29.2002 6.33337C28.8981 6.34558 28.6173 6.53784 28.5044 6.83997C28.3518 7.24585 28.5563 7.69446 28.9622 7.84705C29.5206 8.05457 30.0699 8.29565 30.604 8.56116C30.7169 8.61914 30.8359 8.64661 30.955 8.64661C31.2388 8.64661 31.5134 8.49097 31.6538 8.21631C31.8461 7.83179 31.6904 7.36182 31.3059 7.1665C30.7261 6.87354 30.1188 6.61108 29.5084 6.3822C29.4077 6.34558 29.304 6.33032 29.2002 6.33337ZM33.7137 8.90295C33.5154 8.92737 33.3262 9.02502 33.1919 9.19592C32.9264 9.53467 32.9844 10.026 33.3262 10.2915C33.848 10.7004 34.3485 11.146 34.8185 11.619C41.218 18.0155 41.218 28.422 34.8185 34.8185C34.5133 35.1267 34.5133 35.618 34.8185 35.9263C34.9711 36.0758 35.1725 36.1552 35.3739 36.1552C35.5723 36.1552 35.7737 36.0758 35.9263 35.9263C42.9301 28.9194 42.9301 17.5181 35.9263 10.5112C35.4105 9.99854 34.8612 9.51025 34.2905 9.06165C34.1196 8.93042 33.9091 8.87854 33.7137 8.90295ZM16.5903 15.8091C16.392 15.8091 16.1906 15.8854 16.038 16.038C15.7328 16.3431 15.7328 16.8375 16.038 17.1427L22.114 23.2188L16.038 29.2948C15.7328 29.6 15.7328 30.0944 16.038 30.3995C16.1906 30.5521 16.3889 30.6284 16.5903 30.6284C16.7917 30.6284 16.9901 30.5521 17.1427 30.3995L23.2188 24.3235L29.2948 30.3995C29.4474 30.5521 29.6458 30.6284 29.8472 30.6284C30.0486 30.6284 30.2469 30.5521 30.3995 30.3995C30.7047 30.0944 30.7047 29.6 30.3995 29.2948L24.3235 23.2188L30.3995 17.1427C30.7047 16.8375 30.7047 16.3431 30.3995 16.038C30.0944 15.7328 29.6 15.7328 29.2948 16.038L23.2188 22.114L17.1427 16.038C16.9901 15.8854 16.7887 15.8091 16.5903 15.8091ZM15.6992 36.027C15.394 35.9904 15.0858 36.1307 14.9271 36.4115L14.1459 37.7665C13.9292 38.1388 14.0574 38.6149 14.4297 38.8315C14.5518 38.9017 14.686 38.9384 14.8203 38.9384C15.0889 38.9384 15.3513 38.798 15.4948 38.5477L16.276 37.1927C16.4927 36.8204 16.3676 36.3413 15.9922 36.1246C15.8976 36.0728 15.7969 36.0392 15.6992 36.027ZM30.7383 36.027C30.6376 36.0392 30.5369 36.0728 30.4453 36.1246C30.0699 36.3413 29.9448 36.8204 30.1615 37.1958L30.9427 38.5477C31.0862 38.798 31.3486 38.9384 31.6172 38.9384C31.7515 38.9384 31.8857 38.9048 32.0078 38.8315C32.3832 38.6179 32.5083 38.1388 32.2916 37.7665L31.5104 36.4146C31.3486 36.1338 31.0404 35.9904 30.7383 36.027ZM19.1691 37.5498C18.8669 37.5925 18.6045 37.8092 18.519 38.1235L18.1162 39.6342C18.0033 40.0492 18.2535 40.4764 18.6686 40.5894C18.7357 40.6077 18.8029 40.6168 18.873 40.6168C19.2148 40.6168 19.5322 40.3849 19.6268 40.037L20.0327 38.5264C20.1426 38.1113 19.8954 37.681 19.4803 37.5712C19.3735 37.5406 19.2698 37.5345 19.1691 37.5498ZM27.2715 37.5498C27.1708 37.5345 27.064 37.5406 26.9572 37.5712C26.5421 37.681 26.2949 38.1113 26.4048 38.5264L26.8107 40.037C26.9053 40.3849 27.2196 40.6168 27.5645 40.6168C27.6346 40.6168 27.7018 40.6077 27.7689 40.5894C28.184 40.4764 28.4342 40.0492 28.3213 39.6342L27.9185 38.1235C27.833 37.8092 27.5706 37.5925 27.2715 37.5498ZM23.2188 38.0625C22.7854 38.0625 22.4375 38.4135 22.4375 38.8438V40.4062C22.4375 40.8365 22.7854 41.1875 23.2188 41.1875C23.6521 41.1875 24 40.8365 24 40.4062V38.8438C24 38.4135 23.6521 38.0625 23.2188 38.0625Z" fill="white"/>
</svg>
