<svg width="141" height="60" viewBox="0 0 141 60" fill="none" xmlns="http://www.w3.org/2000/svg">
<rect x="0.5" width="140" height="60" rx="10" fill="white"/>
<circle cx="28" cy="15" r="5" fill="#F958B5"/>
<path d="M45.743 15.762V14.969H50.774V15.762H45.743ZM46.887 10.822C47.537 10.822 48.135 10.939 48.681 11.173C49.227 11.3983 49.7037 11.719 50.111 12.135C50.527 12.551 50.8477 13.0407 51.073 13.604C51.2983 14.1673 51.411 14.7827 51.411 15.45C51.411 16.1173 51.2983 16.7327 51.073 17.296C50.8477 17.8593 50.527 18.349 50.111 18.765C49.7037 19.181 49.227 19.506 48.681 19.74C48.135 19.9653 47.537 20.078 46.887 20.078C46.1937 20.078 45.548 19.9653 44.95 19.74C44.352 19.5147 43.8537 19.181 43.455 18.739L44.053 18.128C44.4343 18.518 44.859 18.7997 45.327 18.973C45.795 19.1377 46.302 19.22 46.848 19.22C47.3593 19.22 47.8317 19.1247 48.265 18.934C48.707 18.7433 49.0883 18.479 49.409 18.141C49.7383 17.803 49.994 17.4087 50.176 16.958C50.358 16.4987 50.449 15.996 50.449 15.45C50.449 14.904 50.358 14.4057 50.176 13.955C49.994 13.4957 49.7383 13.097 49.409 12.759C49.0883 12.421 48.707 12.1567 48.265 11.966C47.8317 11.7753 47.3593 11.68 46.848 11.68C46.302 11.68 45.795 11.7667 45.327 11.94C44.859 12.1133 44.4343 12.3907 44.053 12.772L43.455 12.161C43.8537 11.719 44.352 11.3853 44.95 11.16C45.548 10.9347 46.1937 10.822 46.887 10.822ZM58.4967 20L55.6887 16.62L56.4557 16.165L59.5887 20H58.4967ZM53.4917 20V13.175H54.4147V20H53.4917ZM54.1287 16.958V16.165H56.3257V16.958H54.1287ZM56.5337 16.685L55.6757 16.555L58.3927 13.175H59.3937L56.5337 16.685ZM63.6642 20.065C62.9882 20.065 62.3815 19.9177 61.8442 19.623C61.3155 19.3197 60.8995 18.908 60.5962 18.388C60.2929 17.8593 60.1412 17.257 60.1412 16.581C60.1412 15.8963 60.2929 15.294 60.5962 14.774C60.8995 14.254 61.3155 13.8467 61.8442 13.552C62.3815 13.2573 62.9882 13.11 63.6642 13.11C64.2449 13.11 64.7692 13.2227 65.2372 13.448C65.7052 13.6733 66.0735 14.0113 66.3422 14.462L65.6532 14.93C65.4192 14.5833 65.1289 14.3277 64.7822 14.163C64.4355 13.9983 64.0585 13.916 63.6512 13.916C63.1659 13.916 62.7282 14.0287 62.3382 14.254C61.9482 14.4707 61.6405 14.7783 61.4152 15.177C61.1899 15.5757 61.0772 16.0437 61.0772 16.581C61.0772 17.1183 61.1899 17.5863 61.4152 17.985C61.6405 18.3837 61.9482 18.6957 62.3382 18.921C62.7282 19.1377 63.1659 19.246 63.6512 19.246C64.0585 19.246 64.4355 19.1637 64.7822 18.999C65.1289 18.8343 65.4192 18.583 65.6532 18.245L66.3422 18.713C66.0735 19.155 65.7052 19.493 65.2372 19.727C64.7692 19.9523 64.2449 20.065 63.6642 20.065ZM69.3025 20V13.734L69.5365 13.981H66.7155V13.175H72.8125V13.981H69.9915L70.2255 13.734V20H69.3025ZM77.67 20.065C77.0807 20.065 76.5477 19.9307 76.071 19.662C75.5943 19.3847 75.213 18.9903 74.927 18.479C74.6497 17.959 74.511 17.3263 74.511 16.581C74.511 15.8357 74.6497 15.2073 74.927 14.696C75.2043 14.176 75.5813 13.7817 76.058 13.513C76.5347 13.2443 77.072 13.11 77.67 13.11C78.32 13.11 78.9007 13.2573 79.412 13.552C79.932 13.838 80.3393 14.2453 80.634 14.774C80.9287 15.294 81.076 15.8963 81.076 16.581C81.076 17.2743 80.9287 17.881 80.634 18.401C80.3393 18.921 79.932 19.3283 79.412 19.623C78.9007 19.9177 78.32 20.065 77.67 20.065ZM74.147 22.522V13.175H75.031V15.229L74.94 16.594L75.07 17.972V22.522H74.147ZM77.605 19.246C78.0903 19.246 78.5237 19.1377 78.905 18.921C79.2863 18.6957 79.5897 18.3837 79.815 17.985C80.0403 17.5777 80.153 17.1097 80.153 16.581C80.153 16.0523 80.0403 15.5887 79.815 15.19C79.5897 14.7913 79.2863 14.4793 78.905 14.254C78.5237 14.0287 78.0903 13.916 77.605 13.916C77.1197 13.916 76.682 14.0287 76.292 14.254C75.9107 14.4793 75.6073 14.7913 75.382 15.19C75.1653 15.5887 75.057 16.0523 75.057 16.581C75.057 17.1097 75.1653 17.5777 75.382 17.985C75.6073 18.3837 75.9107 18.6957 76.292 18.921C76.682 19.1377 77.1197 19.246 77.605 19.246ZM85.9841 20.065C85.2734 20.065 84.6494 19.9177 84.1121 19.623C83.5748 19.3197 83.1544 18.908 82.8511 18.388C82.5478 17.8593 82.3961 17.257 82.3961 16.581C82.3961 15.905 82.5391 15.307 82.8251 14.787C83.1198 14.267 83.5184 13.8597 84.0211 13.565C84.5324 13.2617 85.1044 13.11 85.7371 13.11C86.3784 13.11 86.9461 13.2573 87.4401 13.552C87.9428 13.838 88.3371 14.2453 88.6231 14.774C88.9091 15.294 89.0521 15.8963 89.0521 16.581C89.0521 16.6243 89.0478 16.672 89.0391 16.724C89.0391 16.7673 89.0391 16.815 89.0391 16.867H83.0981V16.178H88.5451L88.1811 16.451C88.1811 15.957 88.0728 15.5193 87.8561 15.138C87.6481 14.748 87.3621 14.4447 86.9981 14.228C86.6341 14.0113 86.2138 13.903 85.7371 13.903C85.2691 13.903 84.8488 14.0113 84.4761 14.228C84.1034 14.4447 83.8131 14.748 83.6051 15.138C83.3971 15.528 83.2931 15.9743 83.2931 16.477V16.62C83.2931 17.14 83.4058 17.5993 83.6311 17.998C83.8651 18.388 84.1858 18.6957 84.5931 18.921C85.0091 19.1377 85.4814 19.246 86.0101 19.246C86.4261 19.246 86.8118 19.1723 87.1671 19.025C87.5311 18.8777 87.8431 18.6523 88.1031 18.349L88.6231 18.947C88.3198 19.311 87.9384 19.5883 87.4791 19.779C87.0284 19.9697 86.5301 20.065 85.9841 20.065ZM91.0952 20V13.175H92.0312L95.1252 18.414H94.7352L97.8812 13.175H98.7392V20H97.8942V14.228L98.0632 14.306L95.1252 19.168H94.7092L91.7452 14.254L91.9402 14.215V20H91.0952ZM101.483 22.587C101.162 22.587 100.854 22.535 100.56 22.431C100.274 22.327 100.027 22.171 99.8187 21.963L100.248 21.274C100.421 21.4387 100.607 21.5643 100.807 21.651C101.015 21.7463 101.244 21.794 101.496 21.794C101.799 21.794 102.059 21.7073 102.276 21.534C102.501 21.3693 102.713 21.0747 102.913 20.65L103.355 19.649L103.459 19.506L106.267 13.175H107.177L103.758 20.819C103.567 21.261 103.355 21.612 103.121 21.872C102.895 22.132 102.648 22.314 102.38 22.418C102.111 22.5307 101.812 22.587 101.483 22.587ZM103.303 20.195L100.157 13.175H101.119L103.901 19.441L103.303 20.195ZM108.615 20V13.175H109.551L112.645 18.414H112.255L115.401 13.175H116.259V20H115.414V14.228L115.583 14.306L112.645 19.168H112.229L109.265 14.254L109.46 14.215V20H108.615Z" fill="black"/>
<path d="M12.6232 31.12V30.472H16.2832V31.12H12.6232ZM13.4632 27.64C14.1032 27.64 14.6752 27.78 15.1792 28.06C15.6832 28.332 16.0792 28.712 16.3672 29.2C16.6632 29.68 16.8112 30.228 16.8112 30.844C16.8112 31.46 16.6632 32.012 16.3672 32.5C16.0792 32.988 15.6832 33.372 15.1792 33.652C14.6752 33.932 14.1032 34.072 13.4632 34.072C12.9432 34.072 12.4592 33.992 12.0112 33.832C11.5712 33.664 11.1992 33.424 10.8952 33.112L11.3992 32.608C11.6712 32.864 11.9792 33.056 12.3232 33.184C12.6672 33.304 13.0352 33.364 13.4272 33.364C13.9232 33.364 14.3632 33.256 14.7472 33.04C15.1392 32.816 15.4472 32.516 15.6712 32.14C15.8952 31.756 16.0072 31.324 16.0072 30.844C16.0072 30.364 15.8952 29.936 15.6712 29.56C15.4472 29.176 15.1392 28.876 14.7472 28.66C14.3632 28.444 13.9232 28.336 13.4272 28.336C13.0352 28.336 12.6672 28.4 12.3232 28.528C11.9792 28.648 11.6712 28.836 11.3992 29.092L10.8952 28.6C11.1992 28.28 11.5712 28.04 12.0112 27.88C12.4592 27.72 12.9432 27.64 13.4632 27.64ZM19.5683 34V28.216L19.7843 28.444H17.1803V27.7H22.8083V28.444H20.2043L20.4203 28.216V34H19.5683ZM26.3392 34.06C25.7312 34.06 25.1832 33.924 24.6952 33.652C24.2152 33.372 23.8352 32.992 23.5552 32.512C23.2752 32.024 23.1352 31.468 23.1352 30.844C23.1352 30.212 23.2752 29.656 23.5552 29.176C23.8352 28.696 24.2152 28.32 24.6952 28.048C25.1752 27.776 25.7232 27.64 26.3392 27.64C26.9632 27.64 27.5152 27.776 27.9952 28.048C28.4832 28.32 28.8632 28.696 29.1352 29.176C29.4152 29.656 29.5552 30.212 29.5552 30.844C29.5552 31.468 29.4152 32.024 29.1352 32.512C28.8632 32.992 28.4832 33.372 27.9952 33.652C27.5072 33.924 26.9552 34.06 26.3392 34.06ZM26.3392 33.304C26.7952 33.304 27.1992 33.204 27.5512 33.004C27.9032 32.796 28.1792 32.508 28.3792 32.14C28.5872 31.764 28.6912 31.332 28.6912 30.844C28.6912 30.348 28.5872 29.916 28.3792 29.548C28.1792 29.18 27.9032 28.896 27.5512 28.696C27.1992 28.488 26.7992 28.384 26.3512 28.384C25.9032 28.384 25.5032 28.488 25.1512 28.696C24.7992 28.896 24.5192 29.18 24.3112 29.548C24.1032 29.916 23.9992 30.348 23.9992 30.844C23.9992 31.332 24.1032 31.764 24.3112 32.14C24.5192 32.508 24.7992 32.796 25.1512 33.004C25.5032 33.204 25.8992 33.304 26.3392 33.304ZM35.7167 34V28.216L35.9327 28.444H33.3287V27.7H38.9567V28.444H36.3527L36.5687 28.216V34H35.7167ZM42.4876 34.06C41.8796 34.06 41.3316 33.924 40.8436 33.652C40.3636 33.372 39.9836 32.992 39.7036 32.512C39.4236 32.024 39.2836 31.468 39.2836 30.844C39.2836 30.212 39.4236 29.656 39.7036 29.176C39.9836 28.696 40.3636 28.32 40.8436 28.048C41.3236 27.776 41.8716 27.64 42.4876 27.64C43.1116 27.64 43.6636 27.776 44.1436 28.048C44.6316 28.32 45.0116 28.696 45.2836 29.176C45.5636 29.656 45.7036 30.212 45.7036 30.844C45.7036 31.468 45.5636 32.024 45.2836 32.512C45.0116 32.992 44.6316 33.372 44.1436 33.652C43.6556 33.924 43.1036 34.06 42.4876 34.06ZM42.4876 33.304C42.9436 33.304 43.3476 33.204 43.6996 33.004C44.0516 32.796 44.3276 32.508 44.5276 32.14C44.7356 31.764 44.8396 31.332 44.8396 30.844C44.8396 30.348 44.7356 29.916 44.5276 29.548C44.3276 29.18 44.0516 28.896 43.6996 28.696C43.3476 28.488 42.9476 28.384 42.4996 28.384C42.0516 28.384 41.6516 28.488 41.2996 28.696C40.9476 28.896 40.6676 29.18 40.4596 29.548C40.2516 29.916 40.1476 30.348 40.1476 30.844C40.1476 31.332 40.2516 31.764 40.4596 32.14C40.6676 32.508 40.9476 32.796 41.2996 33.004C41.6516 33.204 42.0476 33.304 42.4876 33.304ZM51.5085 31.336C51.1405 31.496 50.7685 31.624 50.3925 31.72C50.0245 31.808 49.6565 31.852 49.2885 31.852C48.5445 31.852 47.9565 31.684 47.5245 31.348C47.0925 31.004 46.8765 30.476 46.8765 29.764V27.7H47.7165V29.716C47.7165 30.196 47.8725 30.556 48.1845 30.796C48.4965 31.036 48.9165 31.156 49.4445 31.156C49.7645 31.156 50.1005 31.116 50.4525 31.036C50.8045 30.948 51.1605 30.824 51.5205 30.664L51.5085 31.336ZM51.4365 34V27.7H52.2885V34H51.4365ZM59.3281 34L56.7361 30.88L57.4441 30.46L60.3361 34H59.3281ZM54.7081 34V27.7H55.5601V34H54.7081ZM55.2961 31.192V30.46H57.3241V31.192H55.2961ZM57.5161 30.94L56.7241 30.82L59.2321 27.7H60.1561L57.5161 30.94ZM65.4756 34V32.608L65.4396 32.38V30.052C65.4396 29.516 65.2876 29.104 64.9836 28.816C64.6876 28.528 64.2436 28.384 63.6516 28.384C63.2436 28.384 62.8556 28.452 62.4876 28.588C62.1196 28.724 61.8076 28.904 61.5516 29.128L61.1676 28.492C61.4876 28.22 61.8716 28.012 62.3196 27.868C62.7676 27.716 63.2396 27.64 63.7356 27.64C64.5516 27.64 65.1796 27.844 65.6196 28.252C66.0676 28.652 66.2916 29.264 66.2916 30.088V34H65.4756ZM63.3036 34.06C62.8316 34.06 62.4196 33.984 62.0676 33.832C61.7236 33.672 61.4596 33.456 61.2756 33.184C61.0916 32.904 60.9996 32.584 60.9996 32.224C60.9996 31.896 61.0756 31.6 61.2276 31.336C61.3876 31.064 61.6436 30.848 61.9956 30.688C62.3556 30.52 62.8356 30.436 63.4356 30.436H65.6076V31.072H63.4596C62.8516 31.072 62.4276 31.18 62.1876 31.396C61.9556 31.612 61.8396 31.88 61.8396 32.2C61.8396 32.56 61.9796 32.848 62.2596 33.064C62.5396 33.28 62.9316 33.388 63.4356 33.388C63.9156 33.388 64.3276 33.28 64.6716 33.064C65.0236 32.84 65.2796 32.52 65.4396 32.104L65.6316 32.692C65.4716 33.108 65.1916 33.44 64.7916 33.688C64.3996 33.936 63.9036 34.06 63.3036 34.06ZM71.7003 34V27.7H77.3643V34H76.5123V28.216L76.7283 28.444H72.3363L72.5523 28.216V34H71.7003ZM82.4862 34.06C81.8302 34.06 81.2542 33.924 80.7582 33.652C80.2622 33.372 79.8742 32.992 79.5942 32.512C79.3142 32.024 79.1742 31.468 79.1742 30.844C79.1742 30.22 79.3062 29.668 79.5702 29.188C79.8422 28.708 80.2102 28.332 80.6742 28.06C81.1462 27.78 81.6742 27.64 82.2582 27.64C82.8502 27.64 83.3742 27.776 83.8302 28.048C84.2942 28.312 84.6582 28.688 84.9222 29.176C85.1862 29.656 85.3182 30.212 85.3182 30.844C85.3182 30.884 85.3142 30.928 85.3062 30.976C85.3062 31.016 85.3062 31.06 85.3062 31.108H79.8222V30.472H84.8502L84.5142 30.724C84.5142 30.268 84.4142 29.864 84.2142 29.512C84.0222 29.152 83.7582 28.872 83.4222 28.672C83.0862 28.472 82.6982 28.372 82.2582 28.372C81.8262 28.372 81.4382 28.472 81.0942 28.672C80.7502 28.872 80.4822 29.152 80.2902 29.512C80.0982 29.872 80.0022 30.284 80.0022 30.748V30.88C80.0022 31.36 80.1062 31.784 80.3142 32.152C80.5302 32.512 80.8262 32.796 81.2022 33.004C81.5862 33.204 82.0222 33.304 82.5102 33.304C82.8942 33.304 83.2502 33.236 83.5782 33.1C83.9142 32.964 84.2022 32.756 84.4422 32.476L84.9222 33.028C84.6422 33.364 84.2902 33.62 83.8662 33.796C83.4502 33.972 82.9902 34.06 82.4862 34.06ZM90.4562 34.06C89.9122 34.06 89.4202 33.936 88.9802 33.688C88.5402 33.432 88.1882 33.068 87.9242 32.596C87.6682 32.116 87.5402 31.532 87.5402 30.844C87.5402 30.156 87.6682 29.576 87.9242 29.104C88.1802 28.624 88.5282 28.26 88.9682 28.012C89.4082 27.764 89.9042 27.64 90.4562 27.64C91.0562 27.64 91.5922 27.776 92.0642 28.048C92.5442 28.312 92.9202 28.688 93.1922 29.176C93.4642 29.656 93.6002 30.212 93.6002 30.844C93.6002 31.484 93.4642 32.044 93.1922 32.524C92.9202 33.004 92.5442 33.38 92.0642 33.652C91.5922 33.924 91.0562 34.06 90.4562 34.06ZM87.2042 36.328V27.7H88.0202V29.596L87.9362 30.856L88.0562 32.128V36.328H87.2042ZM90.3962 33.304C90.8442 33.304 91.2442 33.204 91.5962 33.004C91.9482 32.796 92.2282 32.508 92.4362 32.14C92.6442 31.764 92.7482 31.332 92.7482 30.844C92.7482 30.356 92.6442 29.928 92.4362 29.56C92.2282 29.192 91.9482 28.904 91.5962 28.696C91.2442 28.488 90.8442 28.384 90.3962 28.384C89.9482 28.384 89.5442 28.488 89.1842 28.696C88.8322 28.904 88.5522 29.192 88.3442 29.56C88.1442 29.928 88.0442 30.356 88.0442 30.844C88.0442 31.332 88.1442 31.764 88.3442 32.14C88.5522 32.508 88.8322 32.796 89.1842 33.004C89.5442 33.204 89.9482 33.304 90.3962 33.304ZM98.1308 34.06C97.4748 34.06 96.8988 33.924 96.4028 33.652C95.9068 33.372 95.5188 32.992 95.2388 32.512C94.9588 32.024 94.8188 31.468 94.8188 30.844C94.8188 30.22 94.9508 29.668 95.2148 29.188C95.4868 28.708 95.8548 28.332 96.3188 28.06C96.7908 27.78 97.3188 27.64 97.9028 27.64C98.4948 27.64 99.0188 27.776 99.4748 28.048C99.9388 28.312 100.303 28.688 100.567 29.176C100.831 29.656 100.963 30.212 100.963 30.844C100.963 30.884 100.959 30.928 100.951 30.976C100.951 31.016 100.951 31.06 100.951 31.108H95.4668V30.472H100.495L100.159 30.724C100.159 30.268 100.059 29.864 99.8588 29.512C99.6668 29.152 99.4028 28.872 99.0668 28.672C98.7308 28.472 98.3428 28.372 97.9028 28.372C97.4708 28.372 97.0828 28.472 96.7388 28.672C96.3948 28.872 96.1268 29.152 95.9348 29.512C95.7428 29.872 95.6468 30.284 95.6468 30.748V30.88C95.6468 31.36 95.7508 31.784 95.9588 32.152C96.1748 32.512 96.4708 32.796 96.8468 33.004C97.2308 33.204 97.6668 33.304 98.1548 33.304C98.5388 33.304 98.8948 33.236 99.2228 33.1C99.5588 32.964 99.8468 32.756 100.087 32.476L100.567 33.028C100.287 33.364 99.9348 33.62 99.5108 33.796C99.0948 33.972 98.6348 34.06 98.1308 34.06ZM102.849 34V27.7H107.313V28.444H103.485L103.701 28.228V34H102.849ZM108.544 34V27.7H109.396V32.704L113.608 27.7H114.364V34H113.512V28.984L109.312 34H108.544ZM119.638 34.072C119.126 34.072 118.67 33.988 118.27 33.82C117.878 33.652 117.542 33.396 117.262 33.052C116.982 32.708 116.77 32.284 116.626 31.78C116.482 31.268 116.41 30.676 116.41 30.004C116.41 29.404 116.466 28.88 116.578 28.432C116.69 27.976 116.846 27.584 117.046 27.256C117.246 26.928 117.478 26.652 117.742 26.428C118.014 26.196 118.306 26.012 118.618 25.876C118.938 25.732 119.266 25.624 119.602 25.552L122.434 24.892L122.578 25.684L119.914 26.284C119.746 26.324 119.542 26.38 119.302 26.452C119.07 26.524 118.83 26.632 118.582 26.776C118.342 26.92 118.118 27.12 117.91 27.376C117.702 27.632 117.534 27.964 117.406 28.372C117.286 28.772 117.226 29.272 117.226 29.872C117.226 30 117.23 30.104 117.238 30.184C117.246 30.256 117.254 30.336 117.262 30.424C117.278 30.504 117.29 30.624 117.298 30.784L116.926 30.472C117.014 29.984 117.194 29.56 117.466 29.2C117.738 28.832 118.078 28.548 118.486 28.348C118.902 28.14 119.362 28.036 119.866 28.036C120.45 28.036 120.97 28.164 121.426 28.42C121.882 28.668 122.238 29.016 122.494 29.464C122.758 29.912 122.89 30.432 122.89 31.024C122.89 31.608 122.754 32.132 122.482 32.596C122.218 33.06 121.842 33.424 121.354 33.688C120.866 33.944 120.294 34.072 119.638 34.072ZM119.734 33.364C120.182 33.364 120.578 33.264 120.922 33.064C121.266 32.856 121.534 32.576 121.726 32.224C121.926 31.872 122.026 31.476 122.026 31.036C122.026 30.604 121.926 30.22 121.726 29.884C121.534 29.548 121.266 29.284 120.922 29.092C120.578 28.892 120.178 28.792 119.722 28.792C119.274 28.792 118.878 28.888 118.534 29.08C118.19 29.264 117.918 29.524 117.718 29.86C117.526 30.196 117.43 30.584 117.43 31.024C117.43 31.464 117.526 31.86 117.718 32.212C117.918 32.564 118.19 32.844 118.534 33.052C118.886 33.26 119.286 33.364 119.734 33.364ZM128.593 34V32.608L128.557 32.38V30.052C128.557 29.516 128.405 29.104 128.101 28.816C127.805 28.528 127.361 28.384 126.769 28.384C126.361 28.384 125.973 28.452 125.605 28.588C125.237 28.724 124.925 28.904 124.669 29.128L124.285 28.492C124.605 28.22 124.989 28.012 125.437 27.868C125.885 27.716 126.357 27.64 126.853 27.64C127.669 27.64 128.297 27.844 128.737 28.252C129.185 28.652 129.409 29.264 129.409 30.088V34H128.593ZM126.421 34.06C125.949 34.06 125.537 33.984 125.185 33.832C124.841 33.672 124.577 33.456 124.393 33.184C124.209 32.904 124.117 32.584 124.117 32.224C124.117 31.896 124.193 31.6 124.345 31.336C124.505 31.064 124.761 30.848 125.113 30.688C125.473 30.52 125.953 30.436 126.553 30.436H128.725V31.072H126.577C125.969 31.072 125.545 31.18 125.305 31.396C125.073 31.612 124.957 31.88 124.957 32.2C124.957 32.56 125.097 32.848 125.377 33.064C125.657 33.28 126.049 33.388 126.553 33.388C127.033 33.388 127.445 33.28 127.789 33.064C128.141 32.84 128.397 32.52 128.557 32.104L128.749 32.692C128.589 33.108 128.309 33.44 127.909 33.688C127.517 33.936 127.021 34.06 126.421 34.06ZM40.1241 49V42.7H42.9081C43.6201 42.7 44.1801 42.836 44.5881 43.108C45.0041 43.38 45.2121 43.78 45.2121 44.308C45.2121 44.82 45.0161 45.216 44.6241 45.496C44.2321 45.768 43.7161 45.904 43.0761 45.904L43.2441 45.652C43.9961 45.652 44.5481 45.792 44.9001 46.072C45.2521 46.352 45.4281 46.756 45.4281 47.284C45.4281 47.828 45.2281 48.252 44.8281 48.556C44.4361 48.852 43.8241 49 42.9921 49H40.1241ZM40.9521 48.328H42.9561C43.4921 48.328 43.8961 48.244 44.1681 48.076C44.4481 47.9 44.5881 47.62 44.5881 47.236C44.5881 46.852 44.4641 46.572 44.2161 46.396C43.9681 46.22 43.5761 46.132 43.0401 46.132H40.9521V48.328ZM40.9521 45.496H42.8481C43.3361 45.496 43.7081 45.404 43.9641 45.22C44.2281 45.036 44.3601 44.768 44.3601 44.416C44.3601 44.064 44.2281 43.8 43.9641 43.624C43.7081 43.448 43.3361 43.36 42.8481 43.36H40.9521V45.496ZM50.5655 49V42.7H55.0295V43.444H51.2015L51.4175 43.228V49H50.5655ZM59.5128 49.06C58.9688 49.06 58.4768 48.936 58.0368 48.688C57.5968 48.432 57.2448 48.068 56.9808 47.596C56.7248 47.116 56.5968 46.532 56.5968 45.844C56.5968 45.156 56.7248 44.576 56.9808 44.104C57.2368 43.624 57.5848 43.26 58.0248 43.012C58.4648 42.764 58.9608 42.64 59.5128 42.64C60.1128 42.64 60.6488 42.776 61.1208 43.048C61.6008 43.312 61.9768 43.688 62.2488 44.176C62.5208 44.656 62.6568 45.212 62.6568 45.844C62.6568 46.484 62.5208 47.044 62.2488 47.524C61.9768 48.004 61.6008 48.38 61.1208 48.652C60.6488 48.924 60.1128 49.06 59.5128 49.06ZM56.2608 51.328V42.7H57.0768V44.596L56.9928 45.856L57.1128 47.128V51.328H56.2608ZM59.4528 48.304C59.9008 48.304 60.3008 48.204 60.6528 48.004C61.0048 47.796 61.2848 47.508 61.4928 47.14C61.7008 46.764 61.8048 46.332 61.8048 45.844C61.8048 45.356 61.7008 44.928 61.4928 44.56C61.2848 44.192 61.0048 43.904 60.6528 43.696C60.3008 43.488 59.9008 43.384 59.4528 43.384C59.0048 43.384 58.6008 43.488 58.2408 43.696C57.8888 43.904 57.6088 44.192 57.4008 44.56C57.2008 44.928 57.1008 45.356 57.1008 45.844C57.1008 46.332 57.2008 46.764 57.4008 47.14C57.6088 47.508 57.8888 47.796 58.2408 48.004C58.6008 48.204 59.0048 48.304 59.4528 48.304ZM68.3642 49V47.608L68.3282 47.38V45.052C68.3282 44.516 68.1762 44.104 67.8722 43.816C67.5762 43.528 67.1322 43.384 66.5402 43.384C66.1322 43.384 65.7442 43.452 65.3762 43.588C65.0082 43.724 64.6962 43.904 64.4402 44.128L64.0562 43.492C64.3762 43.22 64.7602 43.012 65.2082 42.868C65.6562 42.716 66.1282 42.64 66.6242 42.64C67.4402 42.64 68.0682 42.844 68.5082 43.252C68.9562 43.652 69.1802 44.264 69.1802 45.088V49H68.3642ZM66.1922 49.06C65.7202 49.06 65.3082 48.984 64.9562 48.832C64.6122 48.672 64.3482 48.456 64.1642 48.184C63.9802 47.904 63.8882 47.584 63.8882 47.224C63.8882 46.896 63.9642 46.6 64.1162 46.336C64.2762 46.064 64.5322 45.848 64.8842 45.688C65.2442 45.52 65.7242 45.436 66.3242 45.436H68.4962V46.072H66.3482C65.7402 46.072 65.3162 46.18 65.0762 46.396C64.8442 46.612 64.7282 46.88 64.7282 47.2C64.7282 47.56 64.8682 47.848 65.1482 48.064C65.4282 48.28 65.8202 48.388 66.3242 48.388C66.8042 48.388 67.2162 48.28 67.5602 48.064C67.9122 47.84 68.1682 47.52 68.3282 47.104L68.5202 47.692C68.3602 48.108 68.0802 48.44 67.6802 48.688C67.2882 48.936 66.7922 49.06 66.1922 49.06ZM74.9883 49.072C74.9883 49.072 74.9723 49.072 74.9403 49.072C74.9083 49.072 74.8763 49.072 74.8443 49.072C74.8203 49.072 74.8003 49.072 74.7843 49.072C73.5363 49.064 72.5643 48.78 71.8683 48.22C71.1723 47.66 70.8243 46.864 70.8243 45.832C70.8243 44.816 71.1723 44.032 71.8683 43.48C72.5723 42.92 73.5603 42.636 74.8323 42.628C74.8403 42.628 74.8563 42.628 74.8803 42.628C74.9123 42.628 74.9403 42.628 74.9643 42.628C74.9883 42.628 75.0043 42.628 75.0123 42.628C76.2923 42.636 77.2883 42.92 78.0003 43.48C78.7123 44.032 79.0683 44.816 79.0683 45.832C79.0683 46.872 78.7083 47.672 77.9883 48.232C77.2763 48.792 76.2763 49.072 74.9883 49.072ZM74.9763 48.328C75.6883 48.328 76.2843 48.232 76.7643 48.04C77.2443 47.84 77.6083 47.556 77.8563 47.188C78.1043 46.82 78.2283 46.368 78.2283 45.832C78.2283 45.312 78.1043 44.872 77.8563 44.512C77.6083 44.144 77.2443 43.864 76.7643 43.672C76.2843 43.48 75.6883 43.384 74.9763 43.384C74.9683 43.384 74.9443 43.384 74.9043 43.384C74.8723 43.384 74.8523 43.384 74.8443 43.384C74.1483 43.384 73.5643 43.484 73.0923 43.684C72.6203 43.876 72.2643 44.152 72.0243 44.512C71.7843 44.872 71.6643 45.312 71.6643 45.832C71.6643 46.36 71.7843 46.808 72.0243 47.176C72.2723 47.544 72.6323 47.828 73.1043 48.028C73.5763 48.22 74.1563 48.32 74.8443 48.328C74.8603 48.328 74.8843 48.328 74.9163 48.328C74.9483 48.328 74.9683 48.328 74.9763 48.328ZM74.5203 51.328V40.096H75.3483V51.328H74.5203ZM80.8702 49V42.7H81.7222V47.704L85.9342 42.7H86.6902V49H85.8382V43.984L81.6382 49H80.8702ZM93.7519 49L91.1599 45.88L91.8679 45.46L94.7599 49H93.7519ZM89.1319 49V42.7H89.9839V49H89.1319ZM89.7199 46.192V45.46H91.7479V46.192H89.7199ZM91.9399 45.94L91.1479 45.82L93.6559 42.7H94.5799L91.9399 45.94ZM98.5819 49.06C97.9259 49.06 97.3499 48.924 96.8539 48.652C96.3579 48.372 95.9699 47.992 95.6899 47.512C95.4099 47.024 95.2699 46.468 95.2699 45.844C95.2699 45.22 95.4019 44.668 95.6659 44.188C95.9379 43.708 96.3059 43.332 96.7699 43.06C97.2419 42.78 97.7699 42.64 98.3539 42.64C98.9459 42.64 99.4699 42.776 99.9259 43.048C100.39 43.312 100.754 43.688 101.018 44.176C101.282 44.656 101.414 45.212 101.414 45.844C101.414 45.884 101.41 45.928 101.402 45.976C101.402 46.016 101.402 46.06 101.402 46.108H95.9179V45.472H100.946L100.61 45.724C100.61 45.268 100.51 44.864 100.31 44.512C100.118 44.152 99.8539 43.872 99.5179 43.672C99.1819 43.472 98.7939 43.372 98.3539 43.372C97.9219 43.372 97.5339 43.472 97.1899 43.672C96.8459 43.872 96.5779 44.152 96.3859 44.512C96.1939 44.872 96.0979 45.284 96.0979 45.748V45.88C96.0979 46.36 96.2019 46.784 96.4099 47.152C96.6259 47.512 96.9219 47.796 97.2979 48.004C97.6819 48.204 98.1179 48.304 98.6059 48.304C98.9899 48.304 99.3459 48.236 99.6739 48.1C100.01 47.964 100.298 47.756 100.538 47.476L101.018 48.028C100.738 48.364 100.386 48.62 99.9619 48.796C99.5459 48.972 99.0859 49.06 98.5819 49.06Z" fill="black"/>
</svg>
