<svg width="207" height="57" viewBox="0 0 207 57" fill="none" xmlns="http://www.w3.org/2000/svg">
<rect width="207" height="57" rx="10" fill="white"/>
<circle cx="58" cy="15.5" r="5" fill="#F958B5"/>
<path d="M75.954 16.436V15.582H81.372V16.436H75.954ZM77.186 11.116C77.886 11.116 78.53 11.242 79.118 11.494C79.706 11.7367 80.2193 12.082 80.658 12.53C81.106 12.978 81.4513 13.5053 81.694 14.112C81.9367 14.7187 82.058 15.3813 82.058 16.1C82.058 16.8187 81.9367 17.4813 81.694 18.088C81.4513 18.6947 81.106 19.222 80.658 19.67C80.2193 20.118 79.706 20.468 79.118 20.72C78.53 20.9627 77.886 21.084 77.186 21.084C76.4393 21.084 75.744 20.9627 75.1 20.72C74.456 20.4773 73.9193 20.118 73.49 19.642L74.134 18.984C74.5447 19.404 75.002 19.7073 75.506 19.894C76.01 20.0713 76.556 20.16 77.144 20.16C77.6947 20.16 78.2033 20.0573 78.67 19.852C79.146 19.6467 79.5567 19.362 79.902 18.998C80.2567 18.634 80.532 18.2093 80.728 17.724C80.924 17.2293 81.022 16.688 81.022 16.1C81.022 15.512 80.924 14.9753 80.728 14.49C80.532 13.9953 80.2567 13.566 79.902 13.202C79.5567 12.838 79.146 12.5533 78.67 12.348C78.2033 12.1427 77.6947 12.04 77.144 12.04C76.556 12.04 76.01 12.1333 75.506 12.32C75.002 12.5067 74.5447 12.8053 74.134 13.216L73.49 12.558C73.9193 12.082 74.456 11.7227 75.1 11.48C75.744 11.2373 76.4393 11.116 77.186 11.116ZM89.6888 21L86.6648 17.36L87.4908 16.87L90.8648 21H89.6888ZM84.2988 21V13.65H85.2928V21H84.2988ZM84.9848 17.724V16.87H87.3508V17.724H84.9848ZM87.5748 17.43L86.6508 17.29L89.5768 13.65H90.6548L87.5748 17.43ZM95.2538 21.07C94.5258 21.07 93.8724 20.9113 93.2938 20.594C92.7244 20.2673 92.2764 19.824 91.9498 19.264C91.6231 18.6947 91.4598 18.046 91.4598 17.318C91.4598 16.5807 91.6231 15.932 91.9498 15.372C92.2764 14.812 92.7244 14.3733 93.2938 14.056C93.8724 13.7387 94.5258 13.58 95.2538 13.58C95.8791 13.58 96.4438 13.7013 96.9478 13.944C97.4518 14.1867 97.8484 14.5507 98.1378 15.036L97.3958 15.54C97.1438 15.1667 96.8311 14.8913 96.4578 14.714C96.0844 14.5367 95.6784 14.448 95.2398 14.448C94.7171 14.448 94.2458 14.5693 93.8258 14.812C93.4058 15.0453 93.0744 15.3767 92.8318 15.806C92.5891 16.2353 92.4678 16.7393 92.4678 17.318C92.4678 17.8967 92.5891 18.4007 92.8318 18.83C93.0744 19.2593 93.4058 19.5953 93.8258 19.838C94.2458 20.0713 94.7171 20.188 95.2398 20.188C95.6784 20.188 96.0844 20.0993 96.4578 19.922C96.8311 19.7447 97.1438 19.474 97.3958 19.11L98.1378 19.614C97.8484 20.09 97.4518 20.454 96.9478 20.706C96.4438 20.9487 95.8791 21.07 95.2538 21.07ZM101.326 21V14.252L101.578 14.518H98.5397V13.65H105.106V14.518H102.068L102.32 14.252V21H101.326ZM110.337 21.07C109.702 21.07 109.128 20.9253 108.615 20.636C108.102 20.3373 107.691 19.9127 107.383 19.362C107.084 18.802 106.935 18.1207 106.935 17.318C106.935 16.5153 107.084 15.8387 107.383 15.288C107.682 14.728 108.088 14.3033 108.601 14.014C109.114 13.7247 109.693 13.58 110.337 13.58C111.037 13.58 111.662 13.7387 112.213 14.056C112.773 14.364 113.212 14.8027 113.529 15.372C113.846 15.932 114.005 16.5807 114.005 17.318C114.005 18.0647 113.846 18.718 113.529 19.278C113.212 19.838 112.773 20.2767 112.213 20.594C111.662 20.9113 111.037 21.07 110.337 21.07ZM106.543 23.716V13.65H107.495V15.862L107.397 17.332L107.537 18.816V23.716H106.543ZM110.267 20.188C110.79 20.188 111.256 20.0713 111.667 19.838C112.078 19.5953 112.404 19.2593 112.647 18.83C112.89 18.3913 113.011 17.8873 113.011 17.318C113.011 16.7487 112.89 16.2493 112.647 15.82C112.404 15.3907 112.078 15.0547 111.667 14.812C111.256 14.5693 110.79 14.448 110.267 14.448C109.744 14.448 109.273 14.5693 108.853 14.812C108.442 15.0547 108.116 15.3907 107.873 15.82C107.64 16.2493 107.523 16.7487 107.523 17.318C107.523 17.8873 107.64 18.3913 107.873 18.83C108.116 19.2593 108.442 19.5953 108.853 19.838C109.273 20.0713 109.744 20.188 110.267 20.188ZM119.291 21.07C118.525 21.07 117.853 20.9113 117.275 20.594C116.696 20.2673 116.243 19.824 115.917 19.264C115.59 18.6947 115.427 18.046 115.427 17.318C115.427 16.59 115.581 15.946 115.889 15.386C116.206 14.826 116.635 14.3873 117.177 14.07C117.727 13.7433 118.343 13.58 119.025 13.58C119.715 13.58 120.327 13.7387 120.859 14.056C121.4 14.364 121.825 14.8027 122.133 15.372C122.441 15.932 122.595 16.5807 122.595 17.318C122.595 17.3647 122.59 17.416 122.581 17.472C122.581 17.5187 122.581 17.57 122.581 17.626H116.183V16.884H122.049L121.657 17.178C121.657 16.646 121.54 16.1747 121.307 15.764C121.083 15.344 120.775 15.0173 120.383 14.784C119.991 14.5507 119.538 14.434 119.025 14.434C118.521 14.434 118.068 14.5507 117.667 14.784C117.265 15.0173 116.953 15.344 116.729 15.764C116.505 16.184 116.393 16.6647 116.393 17.206V17.36C116.393 17.92 116.514 18.4147 116.757 18.844C117.009 19.264 117.354 19.5953 117.793 19.838C118.241 20.0713 118.749 20.188 119.319 20.188C119.767 20.188 120.182 20.1087 120.565 19.95C120.957 19.7913 121.293 19.5487 121.573 19.222L122.133 19.866C121.806 20.258 121.395 20.5567 120.901 20.762C120.415 20.9673 119.879 21.07 119.291 21.07ZM124.795 21V13.65H125.803L129.135 19.292H128.715L132.103 13.65H133.027V21H132.117V14.784L132.299 14.868L129.135 20.104H128.687L125.495 14.812L125.705 14.77V21H124.795ZM135.981 23.786C135.636 23.786 135.305 23.73 134.987 23.618C134.679 23.506 134.413 23.338 134.189 23.114L134.651 22.372C134.838 22.5493 135.039 22.6847 135.253 22.778C135.477 22.8807 135.725 22.932 135.995 22.932C136.322 22.932 136.602 22.8387 136.835 22.652C137.078 22.4747 137.307 22.1573 137.521 21.7L137.997 20.622L138.109 20.468L141.133 13.65H142.113L138.431 21.882C138.226 22.358 137.997 22.736 137.745 23.016C137.503 23.296 137.237 23.492 136.947 23.604C136.658 23.7253 136.336 23.786 135.981 23.786ZM137.941 21.21L134.553 13.65H135.589L138.585 20.398L137.941 21.21ZM143.662 21V13.65H144.67L148.002 19.292H147.582L150.97 13.65H151.894V21H150.984V14.784L151.166 14.868L148.002 20.104H147.554L144.362 14.812L144.572 14.77V21H143.662Z" fill="black"/>
<path d="M12.088 34.12V33.472H15.748V34.12H12.088ZM12.928 30.64C13.568 30.64 14.14 30.78 14.644 31.06C15.148 31.332 15.544 31.712 15.832 32.2C16.128 32.68 16.276 33.228 16.276 33.844C16.276 34.46 16.128 35.012 15.832 35.5C15.544 35.988 15.148 36.372 14.644 36.652C14.14 36.932 13.568 37.072 12.928 37.072C12.408 37.072 11.924 36.992 11.476 36.832C11.036 36.664 10.664 36.424 10.36 36.112L10.864 35.608C11.136 35.864 11.444 36.056 11.788 36.184C12.132 36.304 12.5 36.364 12.892 36.364C13.388 36.364 13.828 36.256 14.212 36.04C14.604 35.816 14.912 35.516 15.136 35.14C15.36 34.756 15.472 34.324 15.472 33.844C15.472 33.364 15.36 32.936 15.136 32.56C14.912 32.176 14.604 31.876 14.212 31.66C13.828 31.444 13.388 31.336 12.892 31.336C12.5 31.336 12.132 31.4 11.788 31.528C11.444 31.648 11.136 31.836 10.864 32.092L10.36 31.6C10.664 31.28 11.036 31.04 11.476 30.88C11.924 30.72 12.408 30.64 12.928 30.64ZM19.0331 37V31.216L19.2491 31.444H16.6451V30.7H22.2731V31.444H19.6691L19.8851 31.216V37H19.0331ZM25.804 37.06C25.196 37.06 24.648 36.924 24.16 36.652C23.68 36.372 23.3 35.992 23.02 35.512C22.74 35.024 22.6 34.468 22.6 33.844C22.6 33.212 22.74 32.656 23.02 32.176C23.3 31.696 23.68 31.32 24.16 31.048C24.64 30.776 25.188 30.64 25.804 30.64C26.428 30.64 26.98 30.776 27.46 31.048C27.948 31.32 28.328 31.696 28.6 32.176C28.88 32.656 29.02 33.212 29.02 33.844C29.02 34.468 28.88 35.024 28.6 35.512C28.328 35.992 27.948 36.372 27.46 36.652C26.972 36.924 26.42 37.06 25.804 37.06ZM25.804 36.304C26.26 36.304 26.664 36.204 27.016 36.004C27.368 35.796 27.644 35.508 27.844 35.14C28.052 34.764 28.156 34.332 28.156 33.844C28.156 33.348 28.052 32.916 27.844 32.548C27.644 32.18 27.368 31.896 27.016 31.696C26.664 31.488 26.264 31.384 25.816 31.384C25.368 31.384 24.968 31.488 24.616 31.696C24.264 31.896 23.984 32.18 23.776 32.548C23.568 32.916 23.464 33.348 23.464 33.844C23.464 34.332 23.568 34.764 23.776 35.14C23.984 35.508 24.264 35.796 24.616 36.004C24.968 36.204 25.364 36.304 25.804 36.304ZM35.1815 37V31.216L35.3975 31.444H32.7935V30.7H38.4215V31.444H35.8175L36.0335 31.216V37H35.1815ZM41.9524 37.06C41.3444 37.06 40.7964 36.924 40.3084 36.652C39.8284 36.372 39.4484 35.992 39.1684 35.512C38.8884 35.024 38.7484 34.468 38.7484 33.844C38.7484 33.212 38.8884 32.656 39.1684 32.176C39.4484 31.696 39.8284 31.32 40.3084 31.048C40.7884 30.776 41.3364 30.64 41.9524 30.64C42.5764 30.64 43.1284 30.776 43.6084 31.048C44.0964 31.32 44.4764 31.696 44.7484 32.176C45.0284 32.656 45.1684 33.212 45.1684 33.844C45.1684 34.468 45.0284 35.024 44.7484 35.512C44.4764 35.992 44.0964 36.372 43.6084 36.652C43.1204 36.924 42.5684 37.06 41.9524 37.06ZM41.9524 36.304C42.4084 36.304 42.8124 36.204 43.1644 36.004C43.5164 35.796 43.7924 35.508 43.9924 35.14C44.2004 34.764 44.3044 34.332 44.3044 33.844C44.3044 33.348 44.2004 32.916 43.9924 32.548C43.7924 32.18 43.5164 31.896 43.1644 31.696C42.8124 31.488 42.4124 31.384 41.9644 31.384C41.5164 31.384 41.1164 31.488 40.7644 31.696C40.4124 31.896 40.1324 32.18 39.9244 32.548C39.7164 32.916 39.6124 33.348 39.6124 33.844C39.6124 34.332 39.7164 34.764 39.9244 35.14C40.1324 35.508 40.4124 35.796 40.7644 36.004C41.1164 36.204 41.5124 36.304 41.9524 36.304ZM50.9733 34.336C50.6053 34.496 50.2333 34.624 49.8573 34.72C49.4893 34.808 49.1213 34.852 48.7533 34.852C48.0093 34.852 47.4213 34.684 46.9893 34.348C46.5573 34.004 46.3413 33.476 46.3413 32.764V30.7H47.1813V32.716C47.1813 33.196 47.3373 33.556 47.6493 33.796C47.9613 34.036 48.3813 34.156 48.9093 34.156C49.2293 34.156 49.5653 34.116 49.9173 34.036C50.2693 33.948 50.6253 33.824 50.9853 33.664L50.9733 34.336ZM50.9013 37V30.7H51.7533V37H50.9013ZM58.7929 37L56.2009 33.88L56.9089 33.46L59.8009 37H58.7929ZM54.1729 37V30.7H55.0249V37H54.1729ZM54.7609 34.192V33.46H56.7889V34.192H54.7609ZM56.9809 33.94L56.1889 33.82L58.6969 30.7H59.6209L56.9809 33.94ZM64.9404 37V35.608L64.9044 35.38V33.052C64.9044 32.516 64.7524 32.104 64.4484 31.816C64.1524 31.528 63.7084 31.384 63.1164 31.384C62.7084 31.384 62.3204 31.452 61.9524 31.588C61.5844 31.724 61.2724 31.904 61.0164 32.128L60.6324 31.492C60.9524 31.22 61.3364 31.012 61.7844 30.868C62.2324 30.716 62.7044 30.64 63.2004 30.64C64.0164 30.64 64.6444 30.844 65.0844 31.252C65.5324 31.652 65.7564 32.264 65.7564 33.088V37H64.9404ZM62.7684 37.06C62.2964 37.06 61.8844 36.984 61.5324 36.832C61.1884 36.672 60.9244 36.456 60.7404 36.184C60.5564 35.904 60.4644 35.584 60.4644 35.224C60.4644 34.896 60.5404 34.6 60.6924 34.336C60.8524 34.064 61.1084 33.848 61.4604 33.688C61.8204 33.52 62.3004 33.436 62.9004 33.436H65.0724V34.072H62.9244C62.3164 34.072 61.8924 34.18 61.6524 34.396C61.4204 34.612 61.3044 34.88 61.3044 35.2C61.3044 35.56 61.4444 35.848 61.7244 36.064C62.0044 36.28 62.3964 36.388 62.9004 36.388C63.3804 36.388 63.7924 36.28 64.1364 36.064C64.4884 35.84 64.7444 35.52 64.9044 35.104L65.0964 35.692C64.9364 36.108 64.6564 36.44 64.2564 36.688C63.8644 36.936 63.3684 37.06 62.7684 37.06ZM71.1651 37V30.7H76.8291V37H75.9771V31.216L76.1931 31.444H71.8011L72.0171 31.216V37H71.1651ZM81.9511 37.06C81.2951 37.06 80.7191 36.924 80.2231 36.652C79.7271 36.372 79.3391 35.992 79.0591 35.512C78.7791 35.024 78.6391 34.468 78.6391 33.844C78.6391 33.22 78.7711 32.668 79.0351 32.188C79.3071 31.708 79.6751 31.332 80.1391 31.06C80.6111 30.78 81.1391 30.64 81.7231 30.64C82.3151 30.64 82.8391 30.776 83.2951 31.048C83.7591 31.312 84.1231 31.688 84.3871 32.176C84.6511 32.656 84.7831 33.212 84.7831 33.844C84.7831 33.884 84.7791 33.928 84.7711 33.976C84.7711 34.016 84.7711 34.06 84.7711 34.108H79.2871V33.472H84.3151L83.9791 33.724C83.9791 33.268 83.8791 32.864 83.6791 32.512C83.4871 32.152 83.2231 31.872 82.8871 31.672C82.5511 31.472 82.1631 31.372 81.7231 31.372C81.2911 31.372 80.9031 31.472 80.5591 31.672C80.2151 31.872 79.9471 32.152 79.7551 32.512C79.5631 32.872 79.4671 33.284 79.4671 33.748V33.88C79.4671 34.36 79.5711 34.784 79.7791 35.152C79.9951 35.512 80.2911 35.796 80.6671 36.004C81.0511 36.204 81.4871 36.304 81.9751 36.304C82.3591 36.304 82.7151 36.236 83.0431 36.1C83.3791 35.964 83.6671 35.756 83.9071 35.476L84.3871 36.028C84.1071 36.364 83.7551 36.62 83.3311 36.796C82.9151 36.972 82.4551 37.06 81.9511 37.06ZM89.921 37.06C89.377 37.06 88.885 36.936 88.445 36.688C88.005 36.432 87.653 36.068 87.389 35.596C87.133 35.116 87.005 34.532 87.005 33.844C87.005 33.156 87.133 32.576 87.389 32.104C87.645 31.624 87.993 31.26 88.433 31.012C88.873 30.764 89.369 30.64 89.921 30.64C90.521 30.64 91.057 30.776 91.529 31.048C92.009 31.312 92.385 31.688 92.657 32.176C92.929 32.656 93.065 33.212 93.065 33.844C93.065 34.484 92.929 35.044 92.657 35.524C92.385 36.004 92.009 36.38 91.529 36.652C91.057 36.924 90.521 37.06 89.921 37.06ZM86.669 39.328V30.7H87.485V32.596L87.401 33.856L87.521 35.128V39.328H86.669ZM89.861 36.304C90.309 36.304 90.709 36.204 91.061 36.004C91.413 35.796 91.693 35.508 91.901 35.14C92.109 34.764 92.213 34.332 92.213 33.844C92.213 33.356 92.109 32.928 91.901 32.56C91.693 32.192 91.413 31.904 91.061 31.696C90.709 31.488 90.309 31.384 89.861 31.384C89.413 31.384 89.009 31.488 88.649 31.696C88.297 31.904 88.017 32.192 87.809 32.56C87.609 32.928 87.509 33.356 87.509 33.844C87.509 34.332 87.609 34.764 87.809 35.14C88.017 35.508 88.297 35.796 88.649 36.004C89.009 36.204 89.413 36.304 89.861 36.304ZM97.5956 37.06C96.9396 37.06 96.3636 36.924 95.8676 36.652C95.3716 36.372 94.9836 35.992 94.7036 35.512C94.4236 35.024 94.2836 34.468 94.2836 33.844C94.2836 33.22 94.4156 32.668 94.6796 32.188C94.9516 31.708 95.3196 31.332 95.7836 31.06C96.2556 30.78 96.7836 30.64 97.3676 30.64C97.9596 30.64 98.4836 30.776 98.9396 31.048C99.4036 31.312 99.7676 31.688 100.032 32.176C100.296 32.656 100.428 33.212 100.428 33.844C100.428 33.884 100.424 33.928 100.416 33.976C100.416 34.016 100.416 34.06 100.416 34.108H94.9316V33.472H99.9596L99.6236 33.724C99.6236 33.268 99.5236 32.864 99.3236 32.512C99.1316 32.152 98.8676 31.872 98.5316 31.672C98.1956 31.472 97.8076 31.372 97.3676 31.372C96.9356 31.372 96.5476 31.472 96.2036 31.672C95.8596 31.872 95.5916 32.152 95.3996 32.512C95.2076 32.872 95.1116 33.284 95.1116 33.748V33.88C95.1116 34.36 95.2156 34.784 95.4236 35.152C95.6396 35.512 95.9356 35.796 96.3116 36.004C96.6956 36.204 97.1316 36.304 97.6196 36.304C98.0036 36.304 98.3596 36.236 98.6876 36.1C99.0236 35.964 99.3116 35.756 99.5516 35.476L100.032 36.028C99.7516 36.364 99.3996 36.62 98.9756 36.796C98.5596 36.972 98.0996 37.06 97.5956 37.06ZM102.314 37V30.7H106.778V31.444H102.95L103.166 31.228V37H102.314ZM108.009 37V30.7H108.861V35.704L113.073 30.7H113.829V37H112.977V31.984L108.777 37H108.009ZM119.103 37.072C118.591 37.072 118.135 36.988 117.735 36.82C117.343 36.652 117.007 36.396 116.727 36.052C116.447 35.708 116.235 35.284 116.091 34.78C115.947 34.268 115.875 33.676 115.875 33.004C115.875 32.404 115.931 31.88 116.043 31.432C116.155 30.976 116.311 30.584 116.511 30.256C116.711 29.928 116.943 29.652 117.207 29.428C117.479 29.196 117.771 29.012 118.083 28.876C118.403 28.732 118.731 28.624 119.067 28.552L121.899 27.892L122.043 28.684L119.379 29.284C119.211 29.324 119.007 29.38 118.767 29.452C118.535 29.524 118.295 29.632 118.047 29.776C117.807 29.92 117.583 30.12 117.375 30.376C117.167 30.632 116.999 30.964 116.871 31.372C116.751 31.772 116.691 32.272 116.691 32.872C116.691 33 116.695 33.104 116.703 33.184C116.711 33.256 116.719 33.336 116.727 33.424C116.743 33.504 116.755 33.624 116.763 33.784L116.391 33.472C116.479 32.984 116.659 32.56 116.931 32.2C117.203 31.832 117.543 31.548 117.951 31.348C118.367 31.14 118.827 31.036 119.331 31.036C119.915 31.036 120.435 31.164 120.891 31.42C121.347 31.668 121.703 32.016 121.959 32.464C122.223 32.912 122.355 33.432 122.355 34.024C122.355 34.608 122.219 35.132 121.947 35.596C121.683 36.06 121.307 36.424 120.819 36.688C120.331 36.944 119.759 37.072 119.103 37.072ZM119.199 36.364C119.647 36.364 120.043 36.264 120.387 36.064C120.731 35.856 120.999 35.576 121.191 35.224C121.391 34.872 121.491 34.476 121.491 34.036C121.491 33.604 121.391 33.22 121.191 32.884C120.999 32.548 120.731 32.284 120.387 32.092C120.043 31.892 119.643 31.792 119.187 31.792C118.739 31.792 118.343 31.888 117.999 32.08C117.655 32.264 117.383 32.524 117.183 32.86C116.991 33.196 116.895 33.584 116.895 34.024C116.895 34.464 116.991 34.86 117.183 35.212C117.383 35.564 117.655 35.844 117.999 36.052C118.351 36.26 118.751 36.364 119.199 36.364ZM128.058 37V35.608L128.022 35.38V33.052C128.022 32.516 127.87 32.104 127.566 31.816C127.27 31.528 126.826 31.384 126.234 31.384C125.826 31.384 125.438 31.452 125.07 31.588C124.702 31.724 124.39 31.904 124.134 32.128L123.75 31.492C124.07 31.22 124.454 31.012 124.902 30.868C125.35 30.716 125.822 30.64 126.318 30.64C127.134 30.64 127.762 30.844 128.202 31.252C128.65 31.652 128.874 32.264 128.874 33.088V37H128.058ZM125.886 37.06C125.414 37.06 125.002 36.984 124.65 36.832C124.306 36.672 124.042 36.456 123.858 36.184C123.674 35.904 123.582 35.584 123.582 35.224C123.582 34.896 123.658 34.6 123.81 34.336C123.97 34.064 124.226 33.848 124.578 33.688C124.938 33.52 125.418 33.436 126.018 33.436H128.19V34.072H126.042C125.434 34.072 125.01 34.18 124.77 34.396C124.538 34.612 124.422 34.88 124.422 35.2C124.422 35.56 124.562 35.848 124.842 36.064C125.122 36.28 125.514 36.388 126.018 36.388C126.498 36.388 126.91 36.28 127.254 36.064C127.606 35.84 127.862 35.52 128.022 35.104L128.214 35.692C128.054 36.108 127.774 36.44 127.374 36.688C126.982 36.936 126.486 37.06 125.886 37.06ZM134.282 37V30.7H137.066C137.778 30.7 138.338 30.836 138.746 31.108C139.162 31.38 139.37 31.78 139.37 32.308C139.37 32.82 139.174 33.216 138.782 33.496C138.39 33.768 137.874 33.904 137.234 33.904L137.402 33.652C138.154 33.652 138.706 33.792 139.058 34.072C139.41 34.352 139.586 34.756 139.586 35.284C139.586 35.828 139.386 36.252 138.986 36.556C138.594 36.852 137.982 37 137.15 37H134.282ZM135.11 36.328H137.114C137.65 36.328 138.054 36.244 138.326 36.076C138.606 35.9 138.746 35.62 138.746 35.236C138.746 34.852 138.622 34.572 138.374 34.396C138.126 34.22 137.734 34.132 137.198 34.132H135.11V36.328ZM135.11 33.496H137.006C137.494 33.496 137.866 33.404 138.122 33.22C138.386 33.036 138.518 32.768 138.518 32.416C138.518 32.064 138.386 31.8 138.122 31.624C137.866 31.448 137.494 31.36 137.006 31.36H135.11V33.496ZM144.724 37V30.7H149.188V31.444H145.36L145.576 31.228V37H144.724ZM153.671 37.06C153.127 37.06 152.635 36.936 152.195 36.688C151.755 36.432 151.403 36.068 151.139 35.596C150.883 35.116 150.755 34.532 150.755 33.844C150.755 33.156 150.883 32.576 151.139 32.104C151.395 31.624 151.743 31.26 152.183 31.012C152.623 30.764 153.119 30.64 153.671 30.64C154.271 30.64 154.807 30.776 155.279 31.048C155.759 31.312 156.135 31.688 156.407 32.176C156.679 32.656 156.815 33.212 156.815 33.844C156.815 34.484 156.679 35.044 156.407 35.524C156.135 36.004 155.759 36.38 155.279 36.652C154.807 36.924 154.271 37.06 153.671 37.06ZM150.419 39.328V30.7H151.235V32.596L151.151 33.856L151.271 35.128V39.328H150.419ZM153.611 36.304C154.059 36.304 154.459 36.204 154.811 36.004C155.163 35.796 155.443 35.508 155.651 35.14C155.859 34.764 155.963 34.332 155.963 33.844C155.963 33.356 155.859 32.928 155.651 32.56C155.443 32.192 155.163 31.904 154.811 31.696C154.459 31.488 154.059 31.384 153.611 31.384C153.163 31.384 152.759 31.488 152.399 31.696C152.047 31.904 151.767 32.192 151.559 32.56C151.359 32.928 151.259 33.356 151.259 33.844C151.259 34.332 151.359 34.764 151.559 35.14C151.767 35.508 152.047 35.796 152.399 36.004C152.759 36.204 153.163 36.304 153.611 36.304ZM162.522 37V35.608L162.486 35.38V33.052C162.486 32.516 162.334 32.104 162.03 31.816C161.734 31.528 161.29 31.384 160.698 31.384C160.29 31.384 159.902 31.452 159.534 31.588C159.166 31.724 158.854 31.904 158.598 32.128L158.214 31.492C158.534 31.22 158.918 31.012 159.366 30.868C159.814 30.716 160.286 30.64 160.782 30.64C161.598 30.64 162.226 30.844 162.666 31.252C163.114 31.652 163.338 32.264 163.338 33.088V37H162.522ZM160.35 37.06C159.878 37.06 159.466 36.984 159.114 36.832C158.77 36.672 158.506 36.456 158.322 36.184C158.138 35.904 158.046 35.584 158.046 35.224C158.046 34.896 158.122 34.6 158.274 34.336C158.434 34.064 158.69 33.848 159.042 33.688C159.402 33.52 159.882 33.436 160.482 33.436H162.654V34.072H160.506C159.898 34.072 159.474 34.18 159.234 34.396C159.002 34.612 158.886 34.88 158.886 35.2C158.886 35.56 159.026 35.848 159.306 36.064C159.586 36.28 159.978 36.388 160.482 36.388C160.962 36.388 161.374 36.28 161.718 36.064C162.07 35.84 162.326 35.52 162.486 35.104L162.678 35.692C162.518 36.108 162.238 36.44 161.838 36.688C161.446 36.936 160.95 37.06 160.35 37.06ZM169.147 37.072C169.147 37.072 169.131 37.072 169.099 37.072C169.067 37.072 169.035 37.072 169.003 37.072C168.979 37.072 168.959 37.072 168.943 37.072C167.695 37.064 166.723 36.78 166.027 36.22C165.331 35.66 164.983 34.864 164.983 33.832C164.983 32.816 165.331 32.032 166.027 31.48C166.731 30.92 167.719 30.636 168.991 30.628C168.999 30.628 169.015 30.628 169.039 30.628C169.071 30.628 169.099 30.628 169.123 30.628C169.147 30.628 169.163 30.628 169.171 30.628C170.451 30.636 171.447 30.92 172.159 31.48C172.871 32.032 173.227 32.816 173.227 33.832C173.227 34.872 172.867 35.672 172.147 36.232C171.435 36.792 170.435 37.072 169.147 37.072ZM169.135 36.328C169.847 36.328 170.443 36.232 170.923 36.04C171.403 35.84 171.767 35.556 172.015 35.188C172.263 34.82 172.387 34.368 172.387 33.832C172.387 33.312 172.263 32.872 172.015 32.512C171.767 32.144 171.403 31.864 170.923 31.672C170.443 31.48 169.847 31.384 169.135 31.384C169.127 31.384 169.103 31.384 169.063 31.384C169.031 31.384 169.011 31.384 169.003 31.384C168.307 31.384 167.723 31.484 167.251 31.684C166.779 31.876 166.423 32.152 166.183 32.512C165.943 32.872 165.823 33.312 165.823 33.832C165.823 34.36 165.943 34.808 166.183 35.176C166.431 35.544 166.791 35.828 167.263 36.028C167.735 36.22 168.315 36.32 169.003 36.328C169.019 36.328 169.043 36.328 169.075 36.328C169.107 36.328 169.127 36.328 169.135 36.328ZM168.679 39.328V28.096H169.507V39.328H168.679ZM175.028 37V30.7H175.88V35.704L180.092 30.7H180.848V37H179.996V31.984L175.796 37H175.028ZM187.91 37L185.318 33.88L186.026 33.46L188.918 37H187.91ZM183.29 37V30.7H184.142V37H183.29ZM183.878 34.192V33.46H185.906V34.192H183.878ZM186.098 33.94L185.306 33.82L187.814 30.7H188.738L186.098 33.94ZM192.74 37.06C192.084 37.06 191.508 36.924 191.012 36.652C190.516 36.372 190.128 35.992 189.848 35.512C189.568 35.024 189.428 34.468 189.428 33.844C189.428 33.22 189.56 32.668 189.824 32.188C190.096 31.708 190.464 31.332 190.928 31.06C191.4 30.78 191.928 30.64 192.512 30.64C193.104 30.64 193.628 30.776 194.084 31.048C194.548 31.312 194.912 31.688 195.176 32.176C195.44 32.656 195.572 33.212 195.572 33.844C195.572 33.884 195.568 33.928 195.56 33.976C195.56 34.016 195.56 34.06 195.56 34.108H190.076V33.472H195.104L194.768 33.724C194.768 33.268 194.668 32.864 194.468 32.512C194.276 32.152 194.012 31.872 193.676 31.672C193.34 31.472 192.952 31.372 192.512 31.372C192.08 31.372 191.692 31.472 191.348 31.672C191.004 31.872 190.736 32.152 190.544 32.512C190.352 32.872 190.256 33.284 190.256 33.748V33.88C190.256 34.36 190.36 34.784 190.568 35.152C190.784 35.512 191.08 35.796 191.456 36.004C191.84 36.204 192.276 36.304 192.764 36.304C193.148 36.304 193.504 36.236 193.832 36.1C194.168 35.964 194.456 35.756 194.696 35.476L195.176 36.028C194.896 36.364 194.544 36.62 194.12 36.796C193.704 36.972 193.244 37.06 192.74 37.06Z" fill="black"/>
</svg>
