<svg width="15" height="13" viewBox="0 0 15 13" fill="none" xmlns="http://www.w3.org/2000/svg">
<path d="M1.83329 12.1668C1.44371 12.1668 1.11032 12.0282 0.833126 11.751C0.555932 11.4738 0.417098 11.1402 0.416626 10.7502V2.25016C0.416626 1.86058 0.555459 1.52719 0.833126 1.25C1.11079 0.972802 1.44418 0.833968 1.83329 0.833496H13.1666C13.5562 0.833496 13.8898 0.972329 14.1675 1.25C14.4452 1.52766 14.5838 1.86105 14.5833 2.25016V10.7502C14.5833 11.1397 14.4447 11.4734 14.1675 11.751C13.8903 12.0287 13.5567 12.1673 13.1666 12.1668H1.83329ZM7.49996 7.2085L1.83329 3.66683V10.7502H13.1666V3.66683L7.49996 7.2085ZM7.49996 5.79183L13.1666 2.25016H1.83329L7.49996 5.79183ZM1.83329 3.66683V2.25016V10.7502V3.66683Z" fill="white"/>
</svg>
