<svg width="23" height="23" viewBox="0 0 23 23" fill="none" xmlns="http://www.w3.org/2000/svg">
<path d="M13.6016 21.5333H8.93174L8.28847 18.7043C7.52298 18.4117 6.80705 18.0079 6.16485 17.5065L3.33492 18.3769L1 14.4254L3.18549 12.4656C3.06221 11.6716 3.06221 10.864 3.18549 10.07L1 8.1091L3.33492 4.15757L6.16485 5.02796C6.80733 4.52611 7.52366 4.12192 8.28964 3.82904L8.93174 1H13.6016L14.2449 3.82904C15.0104 4.12167 15.7263 4.52547 16.3685 5.02682L19.1984 4.15643L21.5333 8.10796L19.3478 10.0677C19.4711 10.8617 19.4711 11.6693 19.3478 12.4633L21.5333 14.4231L19.1984 18.3746L16.3685 17.5042C15.7264 18.0064 15.0105 18.411 14.2449 18.7043L13.6016 21.5333Z" stroke="white" stroke-width="2" stroke-linecap="round" stroke-linejoin="round"/>
<path d="M11.5024 14.8444C13.4367 14.8444 15.0048 13.3123 15.0048 11.4222C15.0048 9.53218 13.4367 8 11.5024 8C9.56807 8 8 9.53218 8 11.4222C8 13.3123 9.56807 14.8444 11.5024 14.8444Z" stroke="white" stroke-width="2"/>
</svg>
