<svg width="70" height="70" viewBox="0 0 70 70" fill="none" xmlns="http://www.w3.org/2000/svg">
<path d="M34.9997 24.7917C33.8394 24.7917 32.7266 25.2526 31.9061 26.0731C31.0856 26.8935 30.6247 28.0063 30.6247 29.1667V29.4788C30.6247 29.8655 30.471 30.2365 30.1975 30.5099C29.924 30.7834 29.5531 30.9371 29.1663 30.9371C28.7796 30.9371 28.4086 30.7834 28.1351 30.5099C27.8617 30.2365 27.708 29.8655 27.708 29.4788V29.1667C27.708 27.2328 28.4762 25.3781 29.8437 24.0107C31.2111 22.6432 33.0658 21.875 34.9997 21.875H35.338C36.7582 21.8754 38.1441 22.3107 39.3095 23.1223C40.4749 23.9339 41.3639 25.0828 41.8568 26.4147C42.3498 27.7465 42.4232 29.1973 42.067 30.5721C41.7109 31.9469 40.9423 33.1796 39.8647 34.1046L37.6159 36.0325C37.2533 36.3441 36.9621 36.7303 36.7623 37.1647C36.5625 37.5991 36.4587 38.0714 36.458 38.5496V40.1042C36.458 40.4909 36.3044 40.8619 36.0309 41.1354C35.7574 41.4089 35.3864 41.5625 34.9997 41.5625C34.6129 41.5625 34.242 41.4089 33.9685 41.1354C33.695 40.8619 33.5413 40.4909 33.5413 40.1042V38.5496C33.5413 36.7296 34.3376 35.0029 35.7172 33.8188L37.963 31.8938C38.5893 31.3571 39.0362 30.6416 39.2436 29.8433C39.451 29.0451 39.4089 28.2025 39.1229 27.4289C38.837 26.6553 38.321 25.9878 37.6443 25.5163C36.9676 25.0449 36.1628 24.7919 35.338 24.7917H34.9997ZM34.9997 48.125C35.5798 48.125 36.1362 47.8945 36.5465 47.4843C36.9567 47.0741 37.1872 46.5177 37.1872 45.9375C37.1872 45.3573 36.9567 44.8009 36.5465 44.3907C36.1362 43.9805 35.5798 43.75 34.9997 43.75C34.4195 43.75 33.8631 43.9805 33.4529 44.3907C33.0426 44.8009 32.8122 45.3573 32.8122 45.9375C32.8122 46.5177 33.0426 47.0741 33.4529 47.4843C33.8631 47.8945 34.4195 48.125 34.9997 48.125Z" fill="white"/>
<path d="M10 34.7917C10 28.2165 12.612 21.9107 17.2613 17.2613C21.9107 12.612 28.2165 10 34.7917 10C41.3668 10 47.6727 12.612 52.322 17.2613C56.9714 21.9107 59.5833 28.2165 59.5833 34.7917C59.5833 41.3668 56.9714 47.6727 52.322 52.322C47.6727 56.9714 41.3668 59.5833 34.7917 59.5833C28.2165 59.5833 21.9107 56.9714 17.2613 52.322C12.612 47.6727 10 41.3668 10 34.7917ZM34.7917 12.9167C28.9901 12.9167 23.4261 15.2213 19.3237 19.3237C15.2213 23.4261 12.9167 28.9901 12.9167 34.7917C12.9167 40.5933 15.2213 46.1573 19.3237 50.2596C23.4261 54.362 28.9901 56.6667 34.7917 56.6667C40.5933 56.6667 46.1573 54.362 50.2596 50.2596C54.362 46.1573 56.6667 40.5933 56.6667 34.7917C56.6667 28.9901 54.362 23.4261 50.2596 19.3237C46.1573 15.2213 40.5933 12.9167 34.7917 12.9167Z" fill="white"/>
</svg>
