<svg width="25" height="26" viewBox="0 0 25 26" fill="none" xmlns="http://www.w3.org/2000/svg">
<path d="M2.67847 20.7567C2.67847 19.4247 3.2076 18.1472 4.14947 17.2054C5.09134 16.2635 6.36879 15.7344 7.70079 15.7344H17.7454C19.0774 15.7344 20.3549 16.2635 21.2967 17.2054C22.2386 18.1472 22.7678 19.4247 22.7678 20.7567C22.7678 21.4227 22.5032 22.0614 22.0322 22.5324C21.5613 23.0033 20.9226 23.2679 20.2566 23.2679H5.18963C4.52363 23.2679 3.8849 23.0033 3.41397 22.5324C2.94303 22.0614 2.67847 21.4227 2.67847 20.7567Z" stroke="white" stroke-width="2" stroke-linejoin="round"/>
<path d="M12.723 10.7119C14.8034 10.7119 16.4898 9.02552 16.4898 6.94521C16.4898 4.86489 14.8034 3.17847 12.723 3.17847C10.6427 3.17847 8.9563 4.86489 8.9563 6.94521C8.9563 9.02552 10.6427 10.7119 12.723 10.7119Z" stroke="white" stroke-width="2"/>
</svg>
