<svg width="13" height="13" viewBox="0 0 13 13" fill="none" xmlns="http://www.w3.org/2000/svg">
<path d="M11.0334 12.6978H10.8704C9.03482 12.4989 7.27124 11.873 5.72086 10.8703C4.28052 9.95243 3.05744 8.73177 2.13669 7.29325C1.13191 5.73869 0.505962 3.97002 0.309194 2.1295C0.286636 1.90998 0.308908 1.68818 0.374659 1.47753C0.44041 1.26688 0.54827 1.07179 0.691694 0.904082C0.831192 0.734132 1.00338 0.593902 1.19805 0.4917C1.39272 0.389497 1.60592 0.327398 1.82503 0.309082H3.66669C4.06557 0.309484 4.45115 0.452497 4.75381 0.712293C5.05647 0.972089 5.25627 1.33155 5.31711 1.72575C5.38443 2.23211 5.51041 2.72892 5.69253 3.20617C5.80334 3.50606 5.82621 3.83136 5.75845 4.14381C5.69069 4.45626 5.53512 4.74287 5.31003 4.96992L4.87794 5.402C5.55824 6.47598 6.47078 7.38368 7.54836 8.05825L7.98044 7.63325C8.20749 7.40816 8.4941 7.25259 8.80655 7.18483C9.119 7.11707 9.4443 7.13994 9.74419 7.25075C10.222 7.43108 10.7186 7.55702 11.2246 7.62617C11.6255 7.68643 11.9907 7.89096 12.2515 8.20136C12.5124 8.51175 12.651 8.90668 12.6413 9.312V11.012C12.6413 11.4541 12.4661 11.8783 12.1542 12.1915C11.8422 12.5048 11.4188 12.6818 10.9767 12.6837L11.0334 12.6978ZM3.66669 1.3645H1.97378C1.89065 1.36999 1.80951 1.39229 1.73524 1.43003C1.66098 1.46777 1.59513 1.52018 1.54169 1.58408C1.48968 1.64395 1.45032 1.71371 1.42597 1.78919C1.40163 1.86466 1.3928 1.94428 1.40003 2.02325C1.57256 3.69246 2.13288 5.29823 3.03628 6.71242C3.86973 8.02048 4.97946 9.13021 6.28753 9.96367C7.70225 10.8773 9.30997 11.4496 10.9838 11.6353C11.0708 11.6398 11.1578 11.6264 11.2394 11.596C11.321 11.5655 11.3956 11.5186 11.4584 11.4582C11.5711 11.3426 11.6346 11.1877 11.6354 11.0262V9.33325C11.6386 9.18418 11.587 9.03912 11.4904 8.92555C11.3938 8.81197 11.2589 8.73777 11.1113 8.717C10.5261 8.63843 9.95124 8.49591 9.39711 8.292C9.28794 8.25118 9.16943 8.24216 9.05534 8.26598C8.94124 8.2898 8.83625 8.34549 8.75253 8.42658L8.04419 9.13492C7.96123 9.2158 7.85438 9.26777 7.73953 9.28308C7.62468 9.29839 7.50795 9.27624 7.40669 9.21992C5.89524 8.36582 4.64417 7.1172 3.78711 5.60742C3.72845 5.50681 3.70496 5.38953 3.72035 5.2741C3.73574 5.15866 3.78914 5.05163 3.87211 4.96992L4.58044 4.26158C4.66167 4.17943 4.71756 4.07565 4.74142 3.96261C4.76528 3.84957 4.75612 3.73206 4.71503 3.62408C4.51056 3.07012 4.36803 2.49523 4.29003 1.90992C4.27245 1.75781 4.19888 1.6177 4.08365 1.51687C3.96842 1.41605 3.81978 1.36173 3.66669 1.3645Z" fill="white"/>
</svg>
