<svg width="15" height="13" viewBox="0 0 15 13" fill="none" xmlns="http://www.w3.org/2000/svg">
<path fill-rule="evenodd" clip-rule="evenodd" d="M3.09985 7.93078C3.13049 7.94021 3.16172 7.94755 3.19335 7.95274C3.39376 8.42496 3.59303 8.89766 3.79119 9.37082C4.14748 10.2222 4.5066 11.0992 4.58523 11.3513C4.68369 11.6616 4.7871 11.8727 4.90044 12.0172C4.95923 12.0908 5.02652 12.156 5.10585 12.2056C5.14751 12.2308 5.19166 12.2517 5.2376 12.2679C5.46427 12.3529 5.6711 12.3175 5.80073 12.2743C5.87684 12.2484 5.94923 12.2127 6.01606 12.168L6.0196 12.1666L8.02135 10.9185L10.3341 12.6908C10.3681 12.7168 10.4049 12.7387 10.4446 12.7567C10.7222 12.8771 10.9914 12.9196 11.245 12.8856C11.4971 12.8502 11.6976 12.7446 11.8471 12.6249C12.0185 12.4864 12.1553 12.3099 12.2466 12.1092L12.2529 12.0937L12.2551 12.088L12.2565 12.0852V12.0837L12.2572 12.083C12.2688 12.0523 12.2783 12.0208 12.2855 11.9888L14.3964 1.34612C14.4022 1.31193 14.4055 1.27737 14.4063 1.2427C14.4063 0.931033 14.2887 0.634241 14.0131 0.455033C13.7766 0.301325 13.5138 0.294241 13.3473 0.306991C13.1688 0.321158 13.0031 0.365074 12.8919 0.400491C12.8297 0.420557 12.7683 0.442765 12.7077 0.467075L12.6999 0.470616L0.860811 5.11445L0.859394 5.11516C0.819248 5.12966 0.779777 5.14597 0.741103 5.16403C0.647186 5.20617 0.557123 5.25642 0.471936 5.3142C0.311144 5.42399 -0.059314 5.72574 0.00372764 6.22441C0.053311 6.62107 0.325311 6.86545 0.491769 6.98303C0.582436 7.04749 0.668853 7.09353 0.732603 7.12399C0.760936 7.13816 0.821853 7.16224 0.848061 7.17357L0.855144 7.1757L3.09985 7.93078ZM13.1143 1.44812H13.1129L13.0944 1.45591L1.24119 6.10612L1.22277 6.1132L1.21569 6.11532C1.19398 6.12372 1.17271 6.13317 1.15194 6.14366C1.17174 6.15478 1.19207 6.16495 1.21285 6.17412L3.43844 6.92353C3.47773 6.93809 3.51566 6.9561 3.55177 6.97737L10.9021 2.67424L10.9092 2.6707C10.9379 2.65361 10.9672 2.63755 10.9971 2.62253C11.0481 2.59632 11.1295 2.55807 11.2216 2.52974C11.2854 2.50991 11.4745 2.45395 11.6785 2.51982C11.7869 2.55363 11.8835 2.61739 11.9572 2.70374C12.0308 2.7901 12.0786 2.89553 12.095 3.00787C12.1214 3.10615 12.1221 3.20955 12.0971 3.3082C12.0475 3.50299 11.9115 3.65457 11.7876 3.77074C11.6813 3.86991 10.3029 5.19874 8.9436 6.51057L7.09273 8.29557L6.76335 8.61432L10.9227 11.8032C10.9789 11.8267 11.0398 11.8364 11.1005 11.8316C11.131 11.8274 11.1598 11.8146 11.1834 11.7947C11.212 11.7705 11.2367 11.7418 11.2563 11.7097L11.2577 11.709L13.3048 1.38649C13.2404 1.40235 13.1772 1.4227 13.1157 1.44741L13.1143 1.44812ZM7.12106 10.2272L6.29089 9.59112L6.08973 10.8697L7.12106 10.2272ZM5.52944 8.32887L6.35464 7.53199L8.20552 5.74557L8.89473 5.08116L4.27639 7.78487L4.30119 7.84295C4.59246 8.53105 4.88052 9.2205 5.16535 9.91128L5.36581 8.63628C5.38411 8.51808 5.44176 8.41023 5.52944 8.32887Z" fill="white"/>
</svg>
