<svg width="23" height="23" viewBox="0 0 23 23" fill="none" xmlns="http://www.w3.org/2000/svg">
<path d="M9.27273 3.80537V12.6969H7.21212V3.47774L7.25539 3.33349C7.38212 2.90798 7.71903 2.18471 8.35061 1.55313C9.00485 0.895797 9.98879 0.333252 11.3333 0.333252C12.6789 0.333252 13.6608 0.895797 14.3161 1.55313C14.9476 2.18471 15.2845 2.90798 15.4113 3.33349L15.4545 3.47774V5.93501H13.3939V3.80537C13.2668 3.50867 13.0851 3.23851 12.8582 3.00895C12.5264 2.67616 12.0484 2.39386 11.3333 2.39386C10.6183 2.39386 10.1402 2.67616 9.80849 3.00895C9.58158 3.23851 9.39983 3.50867 9.27273 3.80537ZM3.14449 7.54537H5.60176V9.60598H3.47212C3.17542 9.73309 2.90526 9.91483 2.6757 10.1417C2.34291 10.4735 2.06061 10.9516 2.06061 11.6666C2.06061 12.3816 2.34291 12.8597 2.6757 13.1914C2.96006 13.4758 3.27945 13.6468 3.47212 13.7272H12.3636V15.7878H3.14449L3.00024 15.7445C2.57473 15.6178 1.85145 15.2809 1.21988 14.6493C0.562545 13.9951 0 13.0111 0 11.6666C0 10.321 0.562545 9.33913 1.21988 8.68386C1.85145 8.05228 2.57473 7.71537 3.00024 7.58865L3.14449 7.54537ZM10.303 7.54537H19.5222L19.6664 7.58865C20.0919 7.71537 20.8142 8.05228 21.4478 8.68386C22.1041 9.3381 22.6667 10.322 22.6667 11.6666C22.6667 13.0122 22.1041 13.994 21.4478 14.6493C20.8152 15.2809 20.0919 15.6178 19.6664 15.7445L19.5222 15.7878H17.0659V13.7272H19.1945C19.4912 13.6001 19.7614 13.4183 19.991 13.1914C20.3238 12.8597 20.6061 12.3816 20.6061 11.6666C20.6061 10.9516 20.3238 10.4735 19.991 10.1417C19.7614 9.91483 19.4912 9.73309 19.1945 9.60598H10.303V7.54537ZM15.4545 10.6363V19.8554L15.4113 19.9997C15.2845 20.4252 14.9476 21.1474 14.3161 21.7811C13.6618 22.4374 12.6779 22.9999 11.3333 22.9999C9.98776 22.9999 9.00588 22.4374 8.35061 21.7811C7.71903 21.1485 7.38212 20.4252 7.25539 19.9997L7.21212 19.8554V17.3992H9.27273V19.5278C9.35309 19.7205 9.52412 20.0399 9.80849 20.3242C10.1402 20.657 10.6183 20.9393 11.3333 20.9393C12.0484 20.9393 12.5264 20.657 12.8582 20.3242C13.0851 20.0947 13.2668 19.8245 13.3939 19.5278V10.6363H15.4545Z" fill="white"/>
</svg>
