<svg width="15" height="15" viewBox="0 0 15 15" fill="none" xmlns="http://www.w3.org/2000/svg">
<path d="M12.4937 2.47779C11.8442 1.82195 11.0707 1.30193 10.2182 0.948049C9.36569 0.594163 8.45129 0.413484 7.52828 0.416542C3.66078 0.416542 0.508693 3.56863 0.508693 7.43613C0.508693 8.67571 0.834526 9.87988 1.44369 10.9424L0.452026 14.5832L4.17078 13.6057C5.19786 14.1653 6.35244 14.4628 7.52828 14.4628C11.3958 14.4628 14.5479 11.3107 14.5479 7.44321C14.5479 5.56613 13.8183 3.80238 12.4937 2.47779ZM7.52828 13.2728C6.47994 13.2728 5.45286 12.9895 4.55328 12.4582L4.34078 12.3307L2.13078 12.9115L2.71869 10.7582L2.57703 10.5386C1.99446 9.60862 1.68518 8.53353 1.68453 7.43613C1.68453 4.22029 4.30536 1.59946 7.52119 1.59946C9.07953 1.59946 10.5458 2.20863 11.6437 3.31363C12.1874 3.8547 12.6183 4.49834 12.9113 5.20723C13.2044 5.91612 13.3538 6.67614 13.3508 7.44321C13.3649 10.659 10.7441 13.2728 7.52828 13.2728ZM10.7299 8.90946C10.5529 8.82446 9.68869 8.39946 9.53286 8.33571C9.36994 8.27904 9.25661 8.25071 9.13619 8.42071C9.01578 8.59779 8.68286 8.99446 8.58369 9.10779C8.48453 9.22821 8.37828 9.24238 8.20119 9.15029C8.02411 9.06529 7.45744 8.87404 6.79161 8.27904C6.26744 7.81154 5.92036 7.23779 5.81411 7.06071C5.71494 6.88363 5.79994 6.79154 5.89203 6.69946C5.96994 6.62154 6.06911 6.49404 6.15411 6.39488C6.23911 6.29571 6.27453 6.21779 6.33119 6.10446C6.38786 5.98404 6.35953 5.88488 6.31703 5.79988C6.27453 5.71488 5.92036 4.85071 5.77869 4.49654C5.63703 4.15654 5.48828 4.19904 5.38203 4.19196H5.04203C4.92161 4.19196 4.73744 4.23446 4.57453 4.41154C4.41869 4.58863 3.96536 5.01363 3.96536 5.87779C3.96536 6.74196 4.59578 7.57779 4.68078 7.69113C4.76578 7.81154 5.92036 9.58238 7.67703 10.3403C8.09494 10.5245 8.42078 10.6307 8.67578 10.7086C9.09369 10.8432 9.47619 10.822 9.78078 10.7795C10.1208 10.7299 10.822 10.3545 10.9637 9.94363C11.1124 9.53279 11.1124 9.18571 11.0629 9.10779C11.0133 9.02988 10.907 8.99446 10.7299 8.90946Z" fill="white"/>
</svg>
